<svg xmlns="https://www.w3.org/2000/svg" viewBox="0 0 20 20" class="{{ include.class }}">
  <path fill="none" stroke="#63E0A4" stroke-linecap="round" stroke-linejoin="round" stroke-miterlimit="10" d="m9.719 17.073-6.562-6.51a4.528 4.528 0 0 1-.696-.888 4.504 4.504 0 0 1 .694-5.535 4.565 4.565 0 0 1 3.233-1.329c1.924 0 3.115 1.12 3.612 1.752.499-.634 1.689-1.752 3.612-1.752 1.221 0 2.369.472 3.233 1.329a4.505 4.505 0 0 1 .693 5.537 4.5 4.5 0 0 1-.695.887l-6.562 6.51a.397.397 0 0 1-.562-.001M6.388 3.61c-1.009 0-1.957.39-2.671 1.097a3.71 3.71 0 0 0 .002 5.289L10 16.228l6.281-6.232a3.712 3.712 0 0 0 .002-5.289 3.77 3.77 0 0 0-2.671-1.097c-1.43 0-2.639.786-3.268 1.863a.4.4 0 0 1-.69 0A3.778 3.778 0 0 0 6.388 3.61"></path>
</svg>
