<svg xmlns="https://www.w3.org/2000/svg" viewBox="0 0 20 20" class="{{ include.class }}">
  <path fill="none" stroke="#63E0A4" stroke-linejoin="round" stroke-miterlimit="10" d="m16.469 8.924-2.414 2.413a.398.398 0 1 1-.564-.563l2.414-2.414a3.017 3.017 0 0 0 0-4.262c-.57-.569-1.326-.883-2.132-.883s-1.562.313-2.132.883L9.227 6.511a3.018 3.018 0 0 0 .997 4.925.4.4 0 0 1 .22.52c-.171.422-.643.17-.52.22a3.815 3.815 0 0 1-1.262-6.229l2.414-2.413c.72-.72 1.678-1.117 2.696-1.117s1.976.396 2.696 1.117a3.815 3.815 0 0 1 .001 5.39m-6.393-1.099a.4.4 0 1 0-.3.74 3.017 3.017 0 0 1 .997 4.925l-2.414 2.413c-.569.569-1.326.883-2.131.883s-1.562-.313-2.132-.883a3.017 3.017 0 0 1 0-4.262L6.51 9.227a.398.398 0 1 0-.564-.564l-2.414 2.414a3.815 3.815 0 0 0 0 5.391c.72.72 1.678 1.116 2.696 1.116s1.976-.396 2.696-1.116l2.414-2.413a3.816 3.816 0 0 0-1.262-6.23"></path>
</svg>
