<svg xmlns="https://www.w3.org/2000/svg" viewBox="0 0 20 20" class="{{ include.class }}">
  <path fill="none" stroke="#63E0A4" stroke-linecap="round" stroke-linejoin="round" stroke-miterlimit="10" d="M17.237 3.056H2.93c-.694 0-1.263.568-1.263 1.263v8.837c0 .694.568 1.263 1.263 1.263h4.629v.879c-.015.086-.183.306-.273.423-.223.293-.455.592-.293.92.07.139.226.303.577.303h4.819c.208 0 .696 0 .862-.379.162-.37-.124-.682-.374-.955-.089-.097-.231-.252-.268-.328v-.862h4.629c.694 0 1.263-.568 1.263-1.263V4.319a1.268 1.268 0 0 0-1.264-1.263M8.053 16.102c.179-.24.347-.505.347-.793v-.89h3.366v.89c0 .303.211.562.419.793H8.053zm9.605-2.946a.427.427 0 0 1-.421.421H2.93a.427.427 0 0 1-.421-.421v-1.263h15.149v1.263zm0-2.104H2.509V4.319c0-.228.193-.421.421-.421h14.308c.228 0 .421.193.421.421v6.733z"></path>
</svg>
