<svg xmlns="https://www.w3.org/2000/svg" viewBox="0 0 20 20" class="{{ include.class }}">
  <path fill="none" stroke="#63E0A4" stroke-linecap="round" stroke-linejoin="round" stroke-miterlimit="10" d="M12.546 4.6h-5.2C4.398 4.6 2 7.022 2 10s2.398 5.4 5.346 5.4h5.2C15.552 15.4 18 12.978 18 10s-2.448-5.4-5.454-5.4m0 10h-5.2C4.838 14.6 2.8 12.536 2.8 10s2.038-4.6 4.546-4.6h5.2c2.522 0 4.654 2.106 4.654 4.6s-2.132 4.6-4.654 4.6m.016-8.4C10.488 6.2 8.8 7.904 8.8 10s1.688 3.8 3.763 3.8c2.115 0 3.838-1.706 3.838-3.8-.001-2.096-1.723-3.8-3.839-3.8m0 6.8C10.93 13 9.6 11.654 9.6 10s1.33-3 2.962-3C14.21 7 15.6 8.374 15.6 10s-1.392 3-3.038 3"></path>
</svg>
